# xmcd
#
# Track frame offsets:
#	150
#	16044
#	29767
#	46377
#	60171
#	77002
#	89661
#	102996
#	120371
#	136464
#	149939
#	168801
#
# Disc length: 2435 seconds
#
# Revision: 0
# Processed by: cddbd v1.5.2PL0 Copyright (c) Steve Scherf et al.
# Submitted via: dBpowerAMP V4.0
#
DISCID=9d09810c
DTITLE=The Wreckers - Pickin' on the Wreckers
DYEAR=1900
DGENRE=
TTITLE0=Leave the Pieces
TTITLE1=Way Back Home
TTITLE2=The Good Kind
TTITLE3=Tennessee
TTITLE4=My, Oh My
TTITLE5=Stand Still, Look Pretty
TTITLE6=Cigarettes
TTITLE7=Hard to Love You
TTITLE8=Lay Me Down
TTITLE9=One More Girl
TTITLE10=Rain
TTITLE11=Crazy People
EXTD=Could be Bluegrass as well...
EXTT0=
EXTT1=
EXTT2=
EXTT3=
EXTT4=
EXTT5=
EXTT6=
EXTT7=
EXTT8=
EXTT9=
EXTT10=
EXTT11=
PLAYORDER=
